# xmcd
#
# Track frame offsets:
#	150
#	26072
#	38525
#	45810
#	61840
#	80007
#	97892
#	109987
#	128675
#
# Disc length: 2052 seconds
#
# Revision: 1
# Processed by: cddbd v1.4PL0 Copyright (c) Steve Scherf et al.
# Submitted via: audiograbber 1.81.02
#
DISCID=63080209
DTITLE=King Biscuit Boy - Gooduns
DYEAR=1970
DGENRE=
TTITLE0=You Done Tore Your Playhouse Down Again
TTITLE1=Boom Boom (Out Go The Lights)
TTITLE2=Georgia Rag
TTITLE3=Barefoot Rock
TTITLE4=The Boogie Walk
TTITLE5=Ranky Tanky
TTITLE6=Twenty Nine Ways
TTITLE7=Bald-Headed Rhumba Boogie
TTITLE8=Lord Pity Us All
EXTD=
EXTT0=
EXTT1=
EXTT2=
EXTT3=
EXTT4=
EXTT5=
EXTT6=
EXTT7=
EXTT8=
PLAYORDER=
